<svg xmlns="http://www.w3.org/2000/svg" xmlns:xlink="http://www.w3.org/1999/xlink" version="1.1" x="0px" y="0px" viewBox="0 0 100 125" enable-background="new 0 0 100 100" xml:space="preserve"><path d="M94.753,45.522C86.105,30.243,68.957,20.751,50,20.751c-18.958,0-36.106,9.492-44.753,24.772  c-0.329,0.582-0.329,1.294,0,1.876c1.799,3.179,3.971,6.102,6.445,8.747L8.943,58.85c-0.75,0.738-0.76,1.943-0.022,2.693  c0.373,0.379,0.865,0.569,1.358,0.569c0.482,0,0.965-0.182,1.336-0.547l2.786-2.741c2.398,2.182,5.025,4.126,7.837,5.812  l-1.852,3.188c-0.529,0.91-0.22,2.075,0.69,2.604c0.301,0.175,0.63,0.258,0.955,0.258c0.656,0,1.295-0.34,1.648-0.948l1.899-3.269  c3.001,1.507,6.176,2.735,9.482,3.661l-0.956,3.759c-0.259,1.019,0.357,2.056,1.377,2.315c0.157,0.04,0.315,0.06,0.471,0.06  c0.85,0,1.625-0.574,1.844-1.436l0.951-3.801c3.032,0.624,6.446,1.003,9.319,1.11v5.209c0,1.051,0.744,1.904,1.796,1.904  c1.051,0,1.796-0.853,1.796-1.904v-5.209c3.591-0.106,6.348-0.477,9.345-1.087l1.022,3.778c0.219,0.862,1.025,1.436,1.875,1.436  c0.155,0,0.328-0.02,0.486-0.06c1.019-0.259,1.643-1.295,1.384-2.315l-0.944-3.728c3.312-0.919,6.495-2.142,9.502-3.645l1.874,3.223  c0.354,0.608,0.993,0.948,1.65,0.948c0.325,0,0.654-0.083,0.955-0.258c0.909-0.529,1.218-1.694,0.69-2.604l-1.821-3.134  c2.821-1.684,5.456-3.629,7.862-5.811l2.73,2.686c0.371,0.365,0.853,0.547,1.336,0.547c0.492,0,0.985-0.19,1.357-0.569  c0.738-0.75,0.728-1.956-0.022-2.693l-2.687-2.643c2.498-2.66,4.689-5.605,6.502-8.808C95.082,46.817,95.082,46.105,94.753,45.522z   M50,24.56c15.256,0,29.222,6.59,37.862,17.531c-8.726,11.007-22.766,17.538-37.86,17.538c-15.096,0-29.136-6.531-37.863-17.539  C20.778,31.149,34.744,24.56,50,24.56z M50,68.361c-17.193,0-32.754-8.364-40.891-21.9c0.237-0.393,0.481-0.782,0.73-1.166  C19.322,56.7,34.132,63.438,50.002,63.438c15.868,0,30.678-6.738,40.161-18.142c0.249,0.384,0.493,0.772,0.729,1.165  C82.753,59.997,67.193,68.361,50,68.361z"/></svg>
