<?xml version="1.0" encoding="utf-8"?>
<!-- Generator: Adobe Illustrator 16.0.0, SVG Export Plug-In . SVG Version: 6.00 Build 0)  -->
<!DOCTYPE svg PUBLIC "-//W3C//DTD SVG 1.1//EN" "http://www.w3.org/Graphics/SVG/1.1/DTD/svg11.dtd">
<svg version="1.1" id="Layer_1" xmlns="http://www.w3.org/2000/svg" xmlns:xlink="http://www.w3.org/1999/xlink" x="0px" y="0px"
	 width="25px" height="25px" viewBox="0 0 25 25" enable-background="new 0 0 25 25" xml:space="preserve">
<g>
	<path fill="#B1B3B0" d="M16.684,0.647c-1.505,0-2.938,0.447-4.166,1.295c-1.215-0.838-2.683-1.295-4.165-1.295
		c-1.955,0-3.792,0.762-5.172,2.144C1.796,4.176,1.032,6.018,1.032,7.976c0,1.959,0.764,3.801,2.129,5.165l9.356,10.688
		l9.339-10.668c2.858-2.858,2.858-7.51,0.002-10.369C20.475,1.409,18.638,0.647,16.684,0.647z M21.259,12.6l-8.741,9.981
		L3.761,12.58c-1.231-1.229-1.91-2.864-1.91-4.604c0-1.739,0.678-3.375,1.91-4.604c1.225-1.229,2.857-1.904,4.592-1.904
		c1.427,0,2.782,0.454,3.918,1.309l0.246,0.186l0.247-0.185c1.136-0.855,2.491-1.31,3.919-1.31c1.735,0,3.367,0.676,4.595,1.904
		C23.816,5.911,23.816,10.043,21.259,12.6z"/>
</g>
</svg>
