<?xml version="1.0" encoding="utf-8"?>
<!-- Generator: Adobe Illustrator 16.0.0, SVG Export Plug-In . SVG Version: 6.00 Build 0)  -->
<!DOCTYPE svg PUBLIC "-//W3C//DTD SVG 1.1//EN" "http://www.w3.org/Graphics/SVG/1.1/DTD/svg11.dtd">
<svg version="1.1" class="nav-icon" id="Layer_1" xmlns="http://www.w3.org/2000/svg" xmlns:xlink="http://www.w3.org/1999/xlink" x="0px" y="0px"
	 width="25px" height="25px" viewBox="0 0 25 25" enable-background="new 0 0 25 25" xml:space="preserve"
	 fill="#B1B3B0"
>
<g>
	<path d="M16.771,15.896c-0.064-0.062-0.145-0.078-0.227-0.094c1.527-1.637,2.383-3.739,2.383-5.987
		c0.002-2.353-0.916-4.567-2.58-6.231C14.682,1.917,12.467,1,10.113,1C7.758,1,5.545,1.917,3.877,3.584
		c-1.664,1.664-2.582,3.879-2.58,6.233c0,2.354,0.918,4.569,2.584,6.233c1.664,1.665,3.877,2.582,6.232,2.582
		c2.246,0,4.35-0.856,5.984-2.381c0.016,0.081,0.031,0.162,0.092,0.225l7.135,7.133c0.078,0.079,0.184,0.12,0.289,0.12
		s0.209-0.041,0.289-0.12c0.16-0.16,0.16-0.419,0-0.579L16.771,15.896z M15.766,15.472c-1.51,1.509-3.518,2.342-5.652,2.342
		s-4.143-0.833-5.654-2.342c-1.51-1.511-2.342-3.518-2.342-5.654c-0.002-2.136,0.83-4.144,2.34-5.654
		c1.512-1.511,3.521-2.344,5.656-2.344s4.143,0.833,5.654,2.344c1.51,1.511,2.342,3.518,2.342,5.652
		C18.109,11.951,17.275,13.959,15.766,15.472z"/>
	<path d="M3.457,9.819h0.818c0-3.218,2.621-5.838,5.838-5.838V3.162C6.443,3.162,3.457,6.148,3.457,9.819z"/>
</g>
</svg>
