<?xml version="1.0" encoding="utf-8"?>
<!-- Generator: Adobe Illustrator 16.0.0, SVG Export Plug-In . SVG Version: 6.00 Build 0)  -->
<!DOCTYPE svg PUBLIC "-//W3C//DTD SVG 1.1//EN" "http://www.w3.org/Graphics/SVG/1.1/DTD/svg11.dtd">
<svg version="1.1" id="Layer_1" xmlns="http://www.w3.org/2000/svg" xmlns:xlink="http://www.w3.org/1999/xlink" x="0px" y="0px"
	 width="25px" height="25px" viewBox="0 0 25 25" enable-background="new 0 0 25 25" xml:space="preserve">
<g>
	<path fill="#FFFFFF" d="M12.49,7.8c-2.475,0-4.489,2.015-4.489,4.49c0,2.475,2.014,4.491,4.489,4.491
		c2.477,0,4.49-2.017,4.49-4.491C16.98,9.814,14.967,7.8,12.49,7.8z M12.49,15.961c-2.023,0-3.668-1.647-3.668-3.671
		s1.645-3.67,3.668-3.67s3.67,1.646,3.67,3.67S14.514,15.961,12.49,15.961z"/>
	<path fill="#FFFFFF" d="M23.42,9.165l-2.598-0.327l1.607-2.066c0.127-0.163,0.112-0.396-0.034-0.541l-3.845-3.849
		c-0.146-0.146-0.379-0.157-0.541-0.033l-2.068,1.608L15.617,1.36C15.591,1.153,15.416,1,15.209,1H9.771
		C9.564,1,9.39,1.153,9.364,1.36L9.039,3.959L6.972,2.352C6.811,2.227,6.579,2.24,6.432,2.385L2.584,6.23
		C2.438,6.375,2.424,6.608,2.551,6.771l1.608,2.066L1.56,9.165C1.355,9.19,1.202,9.364,1.202,9.57v5.44
		c0,0.207,0.153,0.38,0.359,0.406l2.598,0.324l-1.608,2.069c-0.127,0.163-0.112,0.396,0.034,0.541l3.847,3.845
		c0.147,0.148,0.379,0.16,0.541,0.032l2.067-1.606l0.325,2.601c0.026,0.204,0.201,0.358,0.407,0.358h5.438
		c0.207,0,0.382-0.154,0.408-0.358l0.324-2.601l2.068,1.606c0.164,0.128,0.396,0.116,0.541-0.032l3.845-3.848
		c0.146-0.146,0.161-0.379,0.034-0.543l-1.606-2.064l2.596-0.324c0.206-0.026,0.359-0.199,0.359-0.406V9.57
		C23.778,9.364,23.625,9.19,23.42,9.165z M22.959,14.648l-2.952,0.368c-0.146,0.018-0.271,0.113-0.328,0.25
		c-0.056,0.136-0.036,0.291,0.055,0.408l1.827,2.351l-3.334,3.335l-2.352-1.827c-0.114-0.089-0.27-0.11-0.407-0.055
		c-0.136,0.057-0.231,0.183-0.25,0.328l-0.37,2.954h-4.716l-0.369-2.954c-0.019-0.146-0.114-0.271-0.25-0.328
		c-0.137-0.059-0.292-0.035-0.408,0.055l-2.35,1.827L3.42,18.028l1.828-2.354c0.091-0.117,0.112-0.272,0.056-0.408
		c-0.058-0.137-0.182-0.232-0.328-0.25l-2.954-0.368V9.933l2.955-0.372c0.146-0.018,0.271-0.113,0.328-0.249S5.339,9.02,5.248,8.902
		L3.42,6.554l3.335-3.333l2.35,1.827c0.117,0.09,0.273,0.113,0.408,0.056c0.136-0.058,0.231-0.184,0.25-0.329l0.369-2.954h4.716
		l0.37,2.954c0.019,0.146,0.114,0.271,0.25,0.329c0.136,0.056,0.292,0.033,0.407-0.056l2.352-1.831l3.334,3.337l-1.827,2.349
		c-0.091,0.117-0.11,0.273-0.055,0.409s0.182,0.231,0.327,0.249l2.953,0.372V14.648z"/>
</g>
</svg>
