<?xml version="1.0" encoding="utf-8"?>
<!-- Generator: Adobe Illustrator 16.0.0, SVG Export Plug-In . SVG Version: 6.00 Build 0)  -->
<!DOCTYPE svg PUBLIC "-//W3C//DTD SVG 1.1//EN" "http://www.w3.org/Graphics/SVG/1.1/DTD/svg11.dtd">
<svg version="1.1" id="Layer_1" xmlns="http://www.w3.org/2000/svg" xmlns:xlink="http://www.w3.org/1999/xlink" x="0px" y="0px"
	 width="25px" height="25px" viewBox="0 0 25 25" enable-background="new 0 0 25 25" xml:space="preserve">
<g>
	<path fill="#FFFFFF" d="M3.383,11.14c-1.098,0-1.991,0.893-1.991,1.991s0.893,1.993,1.991,1.993c1.099,0,1.993-0.895,1.993-1.993
		S4.482,11.14,3.383,11.14z M3.383,14.305c-0.646,0-1.172-0.526-1.172-1.174s0.526-1.173,1.172-1.173
		c0.647,0,1.173,0.525,1.173,1.173S4.03,14.305,3.383,14.305z"/>
	<path fill="#FFFFFF" d="M3.383,3.231c-1.098,0-1.991,0.893-1.991,1.99c0,1.1,0.893,1.994,1.991,1.994
		c1.099,0,1.993-0.895,1.993-1.994C5.375,4.124,4.482,3.231,3.383,3.231z M3.383,6.397c-0.646,0-1.172-0.527-1.172-1.176
		c0-0.646,0.526-1.17,1.172-1.17c0.647,0,1.173,0.523,1.173,1.17C4.556,5.87,4.03,6.397,3.383,6.397z"/>
	<path fill="#FFFFFF" d="M3.383,19.047c-1.098,0-1.991,0.894-1.991,1.994c0,1.098,0.893,1.991,1.991,1.991
		c1.099,0,1.993-0.894,1.993-1.991C5.375,19.94,4.482,19.047,3.383,19.047z M3.383,22.213c-0.646,0-1.172-0.525-1.172-1.172
		c0-0.649,0.526-1.175,1.172-1.175c0.647,0,1.173,0.525,1.173,1.175C4.556,21.688,4.03,22.213,3.383,22.213z"/>
	<path fill="#FFFFFF" d="M23.02,20.631H8.127c-0.227,0-0.41,0.185-0.41,0.41c0,0.225,0.183,0.409,0.41,0.409H23.02
		c0.227,0,0.41-0.185,0.41-0.409C23.43,20.815,23.246,20.631,23.02,20.631z"/>
	<path fill="#FFFFFF" d="M23.02,12.72H8.127c-0.227,0-0.41,0.186-0.41,0.411c0,0.225,0.183,0.408,0.41,0.408H23.02
		c0.227,0,0.41-0.184,0.41-0.408C23.43,12.905,23.246,12.72,23.02,12.72z"/>
	<path fill="#FFFFFF" d="M23.02,4.812H8.127c-0.227,0-0.41,0.184-0.41,0.409c0,0.227,0.183,0.41,0.41,0.41H23.02
		c0.227,0,0.41-0.184,0.41-0.41C23.43,4.996,23.246,4.812,23.02,4.812z"/>
</g>
<g>
	<path fill="#FFFFFF" d="M3.383,11.14c-1.098,0-1.991,0.893-1.991,1.991s0.893,1.993,1.991,1.993c1.099,0,1.993-0.895,1.993-1.993
		S4.482,11.14,3.383,11.14z M3.383,14.305c-0.646,0-1.172-0.526-1.172-1.174s0.526-1.173,1.172-1.173
		c0.647,0,1.173,0.525,1.173,1.173S4.03,14.305,3.383,14.305z"/>
	<path fill="#FFFFFF" d="M3.383,3.231c-1.098,0-1.991,0.893-1.991,1.99c0,1.1,0.893,1.994,1.991,1.994
		c1.099,0,1.993-0.895,1.993-1.994C5.375,4.124,4.482,3.231,3.383,3.231z M3.383,6.397c-0.646,0-1.172-0.527-1.172-1.176
		c0-0.646,0.526-1.17,1.172-1.17c0.647,0,1.173,0.523,1.173,1.17C4.556,5.87,4.03,6.397,3.383,6.397z"/>
	<path fill="#FFFFFF" d="M3.383,19.047c-1.098,0-1.991,0.894-1.991,1.994c0,1.098,0.893,1.991,1.991,1.991
		c1.099,0,1.993-0.894,1.993-1.991C5.375,19.94,4.482,19.047,3.383,19.047z M3.383,22.213c-0.646,0-1.172-0.525-1.172-1.172
		c0-0.649,0.526-1.175,1.172-1.175c0.647,0,1.173,0.525,1.173,1.175C4.556,21.688,4.03,22.213,3.383,22.213z"/>
	<path fill="#FFFFFF" d="M23.02,20.631H8.127c-0.227,0-0.41,0.185-0.41,0.41c0,0.225,0.183,0.409,0.41,0.409H23.02
		c0.227,0,0.41-0.185,0.41-0.409C23.43,20.815,23.246,20.631,23.02,20.631z"/>
	<path fill="#FFFFFF" d="M23.02,12.72H8.127c-0.227,0-0.41,0.186-0.41,0.411c0,0.225,0.183,0.408,0.41,0.408H23.02
		c0.227,0,0.41-0.184,0.41-0.408C23.43,12.905,23.246,12.72,23.02,12.72z"/>
	<path fill="#FFFFFF" d="M23.02,4.812H8.127c-0.227,0-0.41,0.184-0.41,0.409c0,0.227,0.183,0.41,0.41,0.41H23.02
		c0.227,0,0.41-0.184,0.41-0.41C23.43,4.996,23.246,4.812,23.02,4.812z"/>
</g>
</svg>
