<?xml version="1.0" encoding="utf-8"?>
<!-- Generator: Adobe Illustrator 19.2.1, SVG Export Plug-In . SVG Version: 6.00 Build 0)  -->
<svg version="1.1" id="Layer_1" xmlns="http://www.w3.org/2000/svg" xmlns:xlink="http://www.w3.org/1999/xlink" x="0px" y="0px"
	 viewBox="0 0 370 130" style="enable-background:new 0 0 370 130;" xml:space="preserve">
<style type="text/css">
	.st0{fill:#BF452E;}
</style>
<path class="st0" d="M98.8,73.7c0.4,0.3,0.8,0.6,1,1c0.2,0.4,0.2,0.9-0.1,1.5l-6.6,9.3c-0.3,0.4-0.6,0.7-0.9,0.8
	c-0.3,0.1-0.7,0-1.2-0.3c-1.3-1-2.7-1.7-4.2-2.2C85.3,83.3,83.7,83,82,83c-2.1,0-4.1,0.4-5.9,1.2c-1.8,0.8-3.3,1.9-4.6,3.3
	c-1.3,1.4-2.3,3-3,4.9c-0.7,1.9-1.1,3.9-1.1,6c0,2.1,0.4,4.1,1.1,6c0.7,1.9,1.7,3.5,3,4.9c1.3,1.4,2.8,2.5,4.6,3.3
	c1.8,0.8,3.7,1.2,5.9,1.2c1.7,0,3.3-0.3,4.9-0.8c1.6-0.5,3-1.3,4.2-2.2c0.5-0.3,0.9-0.4,1.2-0.3c0.3,0.1,0.6,0.3,0.9,0.7l6.6,9.6
	c0.3,0.6,0.3,1.1,0.1,1.4c-0.2,0.4-0.5,0.7-1,1c-2.4,1.6-5.1,2.9-7.9,3.8c-2.8,0.9-5.8,1.3-8.9,1.3c-2.7,0-5.4-0.3-7.9-1.1
	c-2.5-0.7-4.9-1.7-7.1-3c-2.2-1.3-4.2-2.8-6-4.6c-1.8-1.8-3.4-3.8-4.6-6c-1.3-2.2-2.3-4.5-3-7.1c-0.7-2.5-1-5.2-1-7.9
	c0-2.7,0.3-5.4,1-7.9c0.7-2.5,1.7-4.9,3-7.1c1.3-2.2,2.8-4.2,4.6-6c1.8-1.8,3.8-3.4,6-4.6c2.2-1.3,4.6-2.3,7.1-3
	c2.5-0.7,5.2-1.1,7.9-1.1c3.1,0,6,0.4,8.8,1.3C93.8,70.9,96.4,72.1,98.8,73.7z"/>
<path class="st0" d="M119.8,104.3c0,1.9,0.3,3.5,0.8,4.9c0.5,1.3,1.2,2.4,2.1,3.3c0.9,0.8,1.9,1.5,3,1.8c1.2,0.4,2.4,0.6,3.6,0.6
	c1.3,0,2.5-0.2,3.7-0.7c1.2-0.5,2.2-1.1,3-2c0.9-0.9,1.6-2,2.1-3.3c0.5-1.3,0.8-2.8,0.8-4.6v-33c0-0.5,0.2-0.9,0.5-1.2
	c0.3-0.3,0.8-0.5,1.3-0.5H152c0.6,0,1.1,0.2,1.4,0.5c0.3,0.3,0.5,0.7,0.5,1.2V104c0,4.5-0.7,8.3-2,11.4c-1.3,3.1-3.1,5.6-5.4,7.4
	c-2.3,1.9-4.9,3.2-7.8,4c-3,0.8-6.1,1.2-9.4,1.2c-3.3,0-6.4-0.4-9.4-1.3c-3-0.8-5.6-2.2-7.9-4.1c-2.3-1.9-4.1-4.4-5.4-7.5
	c-1.3-3.1-2-6.8-2-11.3V71.3c0-0.4,0.1-0.8,0.4-1.2c0.3-0.3,0.7-0.5,1.1-0.5h11.6c0.4,0,0.8,0.2,1.2,0.5c0.4,0.3,0.6,0.7,0.6,1.2
	V104.3z"/>
<path class="st0" d="M162.2,71.3c0-0.5,0.1-1,0.4-1.3c0.3-0.3,0.7-0.5,1.3-0.5H189c2.7,0,5.2,0.5,7.5,1.5c2.3,1,4.4,2.4,6.1,4.1
	c1.7,1.7,3.1,3.7,4.1,6c1,2.3,1.5,4.7,1.5,7.3c0,1.8-0.2,3.4-0.7,5c-0.5,1.6-1.1,3.1-2,4.5c-0.9,1.4-1.9,2.6-3.1,3.8
	c-1.2,1.1-2.5,2.1-3.9,2.9l10,18.8c0.2,0.4,0.4,0.8,0.7,1.3c0.3,0.5,0.4,0.9,0.4,1.3c0,0.4-0.1,0.7-0.4,1c-0.3,0.2-0.6,0.3-1.1,0.3
	h-13.3c-0.4,0-0.8-0.1-1.2-0.4c-0.3-0.3-0.6-0.6-0.7-1.1l-9.4-17.8h-6.3v17.5c0,1.1-0.6,1.7-1.8,1.7h-11.5c-0.5,0-0.9-0.1-1.2-0.4
	c-0.3-0.3-0.5-0.7-0.5-1.3V71.3z M192.6,88.6c0-0.8-0.1-1.6-0.4-2.3c-0.3-0.8-0.7-1.5-1.2-2.1c-0.5-0.6-1.1-1.2-1.9-1.6
	c-0.7-0.4-1.5-0.7-2.4-0.9c-0.7-0.1-1.4-0.1-2-0.1c-0.6,0-1.3-0.1-2.1-0.1h-5.4v14.3h7.2c0.5,0,0.9,0,1.2,0c0.4,0,0.8-0.1,1.2-0.1
	c0.9-0.1,1.7-0.4,2.4-0.8c0.7-0.4,1.3-1,1.8-1.6c0.5-0.6,0.9-1.3,1.1-2.1C192.5,90.2,192.6,89.4,192.6,88.6z"/>
<path class="st0" d="M234.9,71.1c0-0.2,0.1-0.3,0.3-0.5c0.1-0.2,0.3-0.4,0.5-0.5c0.2-0.2,0.4-0.3,0.7-0.4c0.2-0.1,0.5-0.1,0.7-0.1
	h10c0.4,0,0.8,0.1,1.1,0.4c0.3,0.3,0.5,0.5,0.7,0.7l1,2.2l20.4,52.7c0.2,0.5,0.2,0.9-0.1,1.3c-0.3,0.3-0.8,0.5-1.5,0.5h-11.2
	c-0.6,0-1.1-0.1-1.4-0.3c-0.3-0.2-0.6-0.6-0.8-1.1c-0.5-1.3-1-2.6-1.5-3.9c-0.5-1.3-1-2.6-1.5-3.9h-20.7c-0.5,1.3-1,2.6-1.5,3.9
	c-0.5,1.3-1,2.6-1.5,3.9c-0.3,1-1,1.4-2,1.4h-11.5c-0.5,0-0.9-0.1-1.2-0.4c-0.3-0.3-0.4-0.6-0.2-1.2L234.9,71.1z M242,87.7
	c-0.5,1.3-1,2.8-1.5,4.3c-0.5,1.5-1,3.1-1.5,4.6c-0.5,1.6-1,3.1-1.5,4.6c-0.5,1.5-1,2.9-1.5,4.3h11.9L242,87.7z"/>
<path class="st0" d="M261.9,71.3c0-0.5,0.2-0.9,0.5-1.2c0.3-0.3,0.8-0.5,1.3-0.5h41.8c0.5,0,0.9,0.1,1.2,0.4
	c0.4,0.3,0.6,0.7,0.6,1.3v9.7c0,0.5-0.2,0.9-0.5,1.3c-0.3,0.4-0.8,0.6-1.4,0.6h-13.4v42.6c0,0.5-0.2,0.9-0.5,1.3
	c-0.3,0.4-0.8,0.6-1.3,0.6h-11.4c-0.4,0-0.9-0.2-1.2-0.5c-0.4-0.3-0.6-0.8-0.6-1.3V82.9h-13.4c-0.5,0-1-0.2-1.3-0.5
	c-0.3-0.3-0.5-0.8-0.5-1.5V71.3z"/>
<path class="st0" d="M307,98.5c0-2.7,0.4-5.4,1.1-7.9c0.7-2.5,1.7-4.9,3-7.1c1.3-2.2,2.8-4.2,4.6-6c1.8-1.8,3.8-3.4,6-4.6
	c2.2-1.3,4.6-2.3,7.1-3c2.5-0.7,5.2-1.1,7.9-1.1c2.7,0,5.4,0.4,7.9,1.1c2.5,0.7,4.9,1.7,7.1,3c2.2,1.3,4.2,2.8,6,4.6
	c1.8,1.8,3.4,3.8,4.7,6c1.3,2.2,2.3,4.6,3,7.1c0.7,2.5,1.1,5.2,1.1,7.9c0,2.7-0.4,5.4-1.1,7.9c-0.7,2.5-1.7,4.9-3,7.1
	c-1.3,2.2-2.8,4.2-4.7,6c-1.8,1.8-3.8,3.3-6,4.6c-2.2,1.3-4.6,2.3-7.1,3c-2.5,0.7-5.2,1.1-7.9,1.1c-2.7,0-5.4-0.3-7.9-1.1
	c-2.5-0.7-4.9-1.7-7.1-3s-4.2-2.8-6-4.6c-1.8-1.8-3.4-3.8-4.6-6c-1.3-2.2-2.3-4.5-3-7.1C307.4,103.9,307,101.2,307,98.5z
	 M322.1,98.4c0,2.2,0.4,4.2,1.1,6c0.7,1.9,1.7,3.5,3,4.9c1.3,1.4,2.9,2.5,4.6,3.3c1.8,0.8,3.8,1.2,5.9,1.2c2.2,0,4.1-0.4,5.9-1.2
	c1.8-0.8,3.4-1.9,4.7-3.3c1.3-1.4,2.3-3,3-4.9c0.7-1.9,1.1-3.9,1.1-6c0-2.1-0.4-4.1-1.1-6c-0.7-1.9-1.7-3.5-3-4.9
	c-1.3-1.4-2.9-2.5-4.7-3.3c-1.8-0.8-3.8-1.2-5.9-1.2c-2.1,0-4.1,0.4-5.9,1.2c-1.8,0.8-3.3,1.9-4.6,3.3c-1.3,1.4-2.3,3-3,4.9
	C322.4,94.3,322.1,96.3,322.1,98.4z"/>
<g>
	<path class="st0" d="M74.8,22.7c-1.7,0-3.4,0.3-4.9,0.9c-2.7,0.9-5,2.6-6.7,4.8c0.3-1.2,0.8-2.2,1.4-3L47.5,15.3
		c0.5-1.1,0.8-2.4,0.8-3.7c0-5.1-4.2-9.3-9.3-9.3s-9.3,4.2-9.3,9.3c0,5.1,4.2,9.3,9.3,9.3c2.4,0,4.5-0.9,6.2-2.4l16.5,12.3
		c-1,2-1.6,4.3-1.6,6.7c0,2.4,0.6,4.6,1.6,6.6L37.2,59.1c0.9,1.3,1.7,3.3,1.4,5.7c-1.3-2.4-3.2-4.6-5.4-6.2
		c-3.1-2.3-6.9-3.7-11.1-3.7c-10.3,0-18.7,8.4-18.7,18.7c0,10.3,8.4,18.7,18.7,18.7c10.3,0,18.7-8.4,18.7-18.7
		c0-0.8-0.1-1.6-0.2-2.4l24.7-22.4c2.5,2.1,5.8,3.3,9.4,3.3c8.1,0,14.8-6.6,14.8-14.8C89.6,29.3,83,22.7,74.8,22.7z"/>
</g>
</svg>
