<?xml version="1.0" encoding="utf-8"?>
<!-- Generator: Adobe Illustrator 19.2.1, SVG Export Plug-In . SVG Version: 6.00 Build 0)  -->
<svg version="1.1" id="Layer_1" xmlns="http://www.w3.org/2000/svg" xmlns:xlink="http://www.w3.org/1999/xlink" x="0px" y="0px"
	 viewBox="0 0 95 95" style="enable-background:new 0 0 95 95;" xml:space="preserve">
<style type="text/css">
	.st0{fill:#FFFFFF;}
</style>
<g>
	<path class="st0" d="M76.2,22.7c-1.7,0-3.4,0.3-4.9,0.9c-2.7,0.9-5,2.6-6.7,4.8c0.3-1.2,0.8-2.2,1.4-3L48.9,15.3
		c0.5-1.1,0.8-2.4,0.8-3.7c0-5.1-4.2-9.3-9.3-9.3s-9.3,4.2-9.3,9.3c0,5.1,4.2,9.3,9.3,9.3c2.4,0,4.5-0.9,6.2-2.4l16.5,12.3
		c-1,2-1.6,4.3-1.6,6.7c0,2.4,0.6,4.6,1.6,6.6L38.6,59.1c0.9,1.3,1.7,3.3,1.4,5.7c-1.3-2.4-3.2-4.6-5.4-6.2
		c-3.1-2.3-6.9-3.7-11.1-3.7c-10.3,0-18.7,8.4-18.7,18.7c0,10.3,8.4,18.7,18.7,18.7c10.3,0,18.7-8.4,18.7-18.7
		c0-0.8-0.1-1.6-0.2-2.4l24.7-22.4c2.5,2.1,5.8,3.3,9.4,3.3c8.1,0,14.8-6.6,14.8-14.8C91,29.3,84.4,22.7,76.2,22.7z"/>
</g>
</svg>
